<mxfile host="app.diagrams.net" modified="2023-07-08T02:22:22.815Z" agent="Mozilla/5.0 (Windows NT 10.0; Win64; x64) AppleWebKit/537.36 (KHTML, like Gecko) Chrome/114.0.0.0 Safari/537.36" version="21.6.1" etag="zTAzZ63u_lTjAU5-8swv" type="github">
  <diagram name="Page-1" id="AGuHkmyu6wVEw-mbrbl7">
    <mxGraphModel>
      <root>
        <mxCell id="0" />
        <mxCell id="1" parent="0" />
      </root>
    </mxGraphModel>
  </diagram>
</mxfile>
